<svg xmlns="http://www.w3.org/2000/svg" xmlns:xlink="http://www.w3.org/1999/xlink" width="240" height="120" viewBox="0 0 240 120">
  <defs>
    <clipPath id="clip-_02">
      <rect width="240" height="120"/>
    </clipPath>
  </defs>
  <g id="_02" data-name="02" clip-path="url(#clip-_02)">
    <g id="ionic-seeklogo.com" transform="translate(23.3 -188.3)">
      <g id="icon" transform="translate(25.7 224.3)">
        <path id="Shape" d="M91.746,279.6a10.946,10.946,0,1,0,10.946,10.946A10.95,10.95,0,0,0,91.746,279.6Z" transform="translate(-67.746 -266.498)" fill="#3880ff"/>
        <circle id="Oval" cx="4.999" cy="4.999" r="4.999" transform="translate(34.685 4.075)" fill="#3880ff"/>
        <path id="Shape_1_" d="M71.52,238.373l-.19-.45-.332.4a7.528,7.528,0,0,1-3.009,2.061l-.332.142.142.332a19.057,19.057,0,0,1,1.493,7.51A19.619,19.619,0,1,1,58.087,230.65l.284.142.142-.332a7.452,7.452,0,0,1,2.227-2.914l.4-.332-.45-.237A23.993,23.993,0,1,0,73.7,248.3,24.494,24.494,0,0,0,71.52,238.373Z" transform="translate(-25.7 -224.3)" fill="#3880ff"/>
      </g>
      <g id="logotype" transform="translate(86.044 237.354)">
        <rect id="Rectangle-path" width="5.07" height="20.896" transform="translate(0 0.521)" fill="#3880ff"/>
        <rect id="Rectangle-path_1_" width="5.07" height="20.896" transform="translate(54.61 0.521)" fill="#3880ff"/>
        <path id="Shape_2_" d="M384.567,271.6a10.921,10.921,0,0,0-6.918,2.748l-.332-2.251H373.1v20.9h5.07V280.366c0-2.488,3.364-4.5,5.852-4.5,2.417,0,4.312,2.345,4.312,5.165v11.988h5.07V281.527C393.357,276.007,390.987,271.6,384.567,271.6Z" transform="translate(-341.661 -271.553)" fill="#3880ff"/>
        <path id="Shape_3_" d="M512.564,289.027c-3.814,0-6.326-2.961-6.326-6.657s2.511-6.657,6.326-6.657c3.222,0,5.212,3.127,5.212,3.127l3.649-2.44a11,11,0,0,0-3.957-3.625,9.246,9.246,0,0,0-4.762-1.374,10.949,10.949,0,1,0,0,21.891,9.178,9.178,0,0,0,4.762-1.374,11.191,11.191,0,0,0,3.957-3.625l-3.649-2.44C517.776,285.876,515.81,289.027,512.564,289.027Z" transform="translate(-439.64 -271.4)" fill="#3880ff"/>
        <path id="path3000_1_" d="M282.146,271.6a10.934,10.934,0,1,0,10.922,10.969A10.661,10.661,0,0,0,282.146,271.6Zm.071,4.312c3.127,0,6.113,2.535,6.113,6.657a6.321,6.321,0,0,1-6.136,6.634c-3.459,0-6.207-2.8-6.207-6.657C275.986,278.708,278.687,275.912,282.217,275.912Z" transform="translate(-263.903 -271.553)" fill="#3880ff"/>
      </g>
    </g>
  </g>
</svg>
