<svg xmlns="http://www.w3.org/2000/svg" xmlns:xlink="http://www.w3.org/1999/xlink" width="240" height="120" viewBox="0 0 240 120">
  <defs>
    <clipPath id="clip-_04_reactnative">
      <rect width="240" height="120"/>
    </clipPath>
  </defs>
  <g id="_04_reactnative" data-name="04_reactnative" clip-path="url(#clip-_04_reactnative)">
    <g id="Group_19995" data-name="Group 19995" transform="translate(16 3.003)">
      <path id="Path_111585" data-name="Path 111585" d="M14.9-10.982a4.834,4.834,0,0,1-1.013,3.105,5.99,5.99,0,0,1-3.131,1.889v.052l5.2,7.191H12.112L7.353-5.516h-2.2V1.256h-3.2V-16.238H7.274a18.8,18.8,0,0,1,2.458.15,9.061,9.061,0,0,1,1.948.451,5.072,5.072,0,0,1,2.38,1.745A4.837,4.837,0,0,1,14.9-10.982ZM6.738-8.2a14.974,14.974,0,0,0,1.863-.1,5.819,5.819,0,0,0,1.288-.294,2.5,2.5,0,0,0,1.34-1,2.823,2.823,0,0,0,.373-1.458,2.578,2.578,0,0,0-.294-1.249,2.011,2.011,0,0,0-1-.856,4.21,4.21,0,0,0-1.151-.307,12.527,12.527,0,0,0-1.713-.1H5.156V-8.2ZM24.108-.914A10.263,10.263,0,0,0,25.991-1.1a14.569,14.569,0,0,0,1.987-.523V.851a9.277,9.277,0,0,1-1.844.5,13.81,13.81,0,0,1-2.576.235A9.238,9.238,0,0,1,21,1.237,5.56,5.56,0,0,1,18.891.119a5.38,5.38,0,0,1-1.432-2,7.52,7.52,0,0,1-.53-2.981,8.4,8.4,0,0,1,.5-3.02,6.147,6.147,0,0,1,1.334-2.144A5.487,5.487,0,0,1,20.676-11.3a6.03,6.03,0,0,1,2.229-.425,6.478,6.478,0,0,1,2.216.366,4.452,4.452,0,0,1,1.752,1.151,5.377,5.377,0,0,1,1.151,2.02,9.268,9.268,0,0,1,.412,2.922q-.013.654-.039,1.111h-8.3a3.8,3.8,0,0,0,.392,1.5,2.884,2.884,0,0,0,.856,1.007,3.527,3.527,0,0,0,1.236.562A6.3,6.3,0,0,0,24.108-.914ZM22.866-9.308a2.425,2.425,0,0,0-1.046.216,2.454,2.454,0,0,0-.791.588,2.871,2.871,0,0,0-.53.869,4.189,4.189,0,0,0-.261,1.059H25.22a3.638,3.638,0,0,0-.15-1.059,2.6,2.6,0,0,0-.445-.869,2.1,2.1,0,0,0-.732-.588A2.3,2.3,0,0,0,22.866-9.308ZM38.5-.09h-.052a5.9,5.9,0,0,1-.628.562,5.9,5.9,0,0,1-.837.543,4.889,4.889,0,0,1-1.046.412,4.706,4.706,0,0,1-1.242.157A4.963,4.963,0,0,1,33.006,1.3,3.812,3.812,0,0,1,31.659.491,3.761,3.761,0,0,1,30.777-.79a4.245,4.245,0,0,1-.32-1.68,4.334,4.334,0,0,1,.373-1.83,3.9,3.9,0,0,1,1.039-1.373,4.6,4.6,0,0,1,1.6-.856,6.77,6.77,0,0,1,2.053-.294,10.193,10.193,0,0,1,1.517.1,10.6,10.6,0,0,1,1.216.248v-.51a2.478,2.478,0,0,0-.15-.856,1.92,1.92,0,0,0-.484-.732,2.38,2.38,0,0,0-.869-.51,3.946,3.946,0,0,0-1.307-.19,8.655,8.655,0,0,0-1.883.209,14.787,14.787,0,0,0-2.04.628v-2.419a10.179,10.179,0,0,1,2.027-.641,11.7,11.7,0,0,1,2.249-.235,7.815,7.815,0,0,1,2.425.34,5.093,5.093,0,0,1,1.739.935A3.776,3.776,0,0,1,41-9.047a4.444,4.444,0,0,1,.346,1.765v4.772q0,1.255.026,2.157t.052,1.608h-2.8Zm-.248-4.053q-.445-.1-1.02-.19a7.952,7.952,0,0,0-1.164-.085,3.145,3.145,0,0,0-1.8.451,1.556,1.556,0,0,0-.66,1.379,1.753,1.753,0,0,0,.15.752,1.5,1.5,0,0,0,.405.53,1.727,1.727,0,0,0,.595.314,2.432,2.432,0,0,0,.719.1,3.109,3.109,0,0,0,.889-.124,4.079,4.079,0,0,0,.771-.314,3.741,3.741,0,0,0,.634-.425,4.42,4.42,0,0,0,.477-.458ZM53.683.982a7.832,7.832,0,0,1-1.438.425,8.793,8.793,0,0,1-1.791.177,8.137,8.137,0,0,1-2.563-.392A5.786,5.786,0,0,1,45.813,0a5.518,5.518,0,0,1-1.4-2.02,7.382,7.382,0,0,1-.51-2.857,7.608,7.608,0,0,1,.588-3.138,6.086,6.086,0,0,1,1.523-2.125,6.042,6.042,0,0,1,2.105-1.2,7.342,7.342,0,0,1,2.308-.386,8.667,8.667,0,0,1,1.634.15,7.509,7.509,0,0,1,1.425.412v2.523a7.169,7.169,0,0,0-1.222-.4,6.144,6.144,0,0,0-1.392-.15,4.438,4.438,0,0,0-1.425.229,3.216,3.216,0,0,0-1.2.726,3.453,3.453,0,0,0-.83,1.314,5.6,5.6,0,0,0-.307,1.968,5.161,5.161,0,0,0,.235,1.575,3.559,3.559,0,0,0,.686,1.262,3.315,3.315,0,0,0,1.151.843,3.943,3.943,0,0,0,1.654.32,6.482,6.482,0,0,0,1.543-.17,9.563,9.563,0,0,0,1.307-.418Zm10.153.261a7.789,7.789,0,0,1-1.249.248,10.854,10.854,0,0,1-1.353.092,5.739,5.739,0,0,1-2.608-.516A2.959,2.959,0,0,1,57.194-.417a4.826,4.826,0,0,1-.3-1.883V-8.864H54.527v-2.55h2.366v-3.543h3.1v3.543h3.661v2.55H59.992v6.158a2.081,2.081,0,0,0,.222,1.085,1.73,1.73,0,0,0,1.556.6A6.714,6.714,0,0,0,62.836-1.1a9.164,9.164,0,0,0,1-.216ZM80.742-8.105q1.883,2.68,3.059,4.759h.078q-.157-3.412-.157-4.968v-7.923h3.2V1.256h-3.36L77.866-6.8q-1.5-2.092-3.112-4.851h-.078q.157,3.216.157,4.981V1.256h-3.2V-16.238h3.36ZM97.9-.09H97.85a5.9,5.9,0,0,1-.628.562,5.9,5.9,0,0,1-.837.543,4.889,4.889,0,0,1-1.046.412,4.706,4.706,0,0,1-1.242.157A4.963,4.963,0,0,1,92.411,1.3,3.812,3.812,0,0,1,91.065.491,3.761,3.761,0,0,1,90.182-.79a4.245,4.245,0,0,1-.32-1.68,4.334,4.334,0,0,1,.373-1.83,3.9,3.9,0,0,1,1.039-1.373,4.6,4.6,0,0,1,1.6-.856,6.77,6.77,0,0,1,2.053-.294,10.193,10.193,0,0,1,1.517.1,10.6,10.6,0,0,1,1.216.248v-.51a2.478,2.478,0,0,0-.15-.856,1.92,1.92,0,0,0-.484-.732,2.38,2.38,0,0,0-.869-.51,3.946,3.946,0,0,0-1.307-.19,8.655,8.655,0,0,0-1.883.209,14.787,14.787,0,0,0-2.04.628v-2.419a10.179,10.179,0,0,1,2.027-.641,11.7,11.7,0,0,1,2.249-.235,7.815,7.815,0,0,1,2.425.34,5.093,5.093,0,0,1,1.739.935,3.776,3.776,0,0,1,1.046,1.406,4.444,4.444,0,0,1,.346,1.765v4.772q0,1.255.026,2.157t.052,1.608h-2.8Zm-.248-4.053q-.445-.1-1.02-.19a7.951,7.951,0,0,0-1.164-.085,3.145,3.145,0,0,0-1.8.451,1.556,1.556,0,0,0-.66,1.379,1.753,1.753,0,0,0,.15.752,1.5,1.5,0,0,0,.405.53,1.727,1.727,0,0,0,.595.314,2.432,2.432,0,0,0,.719.1,3.109,3.109,0,0,0,.889-.124,4.079,4.079,0,0,0,.771-.314,3.741,3.741,0,0,0,.634-.425,4.42,4.42,0,0,0,.477-.458ZM111.7,1.243a7.789,7.789,0,0,1-1.249.248,10.855,10.855,0,0,1-1.353.092,5.739,5.739,0,0,1-2.608-.516,2.959,2.959,0,0,1-1.432-1.484,4.826,4.826,0,0,1-.3-1.883V-8.864h-2.366v-2.55h2.366v-3.543h3.1v3.543h3.661v2.55h-3.661v6.158a2.081,2.081,0,0,0,.222,1.085,1.73,1.73,0,0,0,1.556.6A6.714,6.714,0,0,0,110.7-1.1a9.164,9.164,0,0,0,1-.216Zm2.229-12.656h3.1V1.256h-3.1Zm-.078-6.263h3.256v3.36h-3.256Zm17.71,6.263-4.9,12.669h-3.073l-4.916-12.669h3.269l1.765,4.838q.758,2.04,1.386,4.079h.052q.549-1.765,1.36-4l1.765-4.916Zm8.087,10.5a10.263,10.263,0,0,0,1.883-.183,14.57,14.57,0,0,0,1.987-.523V.851a9.277,9.277,0,0,1-1.844.5,13.81,13.81,0,0,1-2.576.235,9.238,9.238,0,0,1-2.556-.346A5.56,5.56,0,0,1,134.434.119a5.38,5.38,0,0,1-1.432-2,7.52,7.52,0,0,1-.53-2.981,8.4,8.4,0,0,1,.5-3.02,6.147,6.147,0,0,1,1.334-2.144,5.488,5.488,0,0,1,1.915-1.275,6.03,6.03,0,0,1,2.229-.425,6.478,6.478,0,0,1,2.216.366,4.452,4.452,0,0,1,1.752,1.151,5.377,5.377,0,0,1,1.151,2.02,9.269,9.269,0,0,1,.412,2.922q-.013.654-.039,1.111h-8.3a3.8,3.8,0,0,0,.392,1.5,2.884,2.884,0,0,0,.856,1.007,3.527,3.527,0,0,0,1.236.562A6.3,6.3,0,0,0,139.651-.914Zm-1.242-8.394a2.425,2.425,0,0,0-1.046.216,2.454,2.454,0,0,0-.791.588,2.871,2.871,0,0,0-.53.869,4.189,4.189,0,0,0-.261,1.059h4.981a3.638,3.638,0,0,0-.15-1.059,2.6,2.6,0,0,0-.445-.869,2.1,2.1,0,0,0-.732-.588A2.3,2.3,0,0,0,138.409-9.308Z" transform="translate(63.288 67.358)" fill="#53c1de"/>
      <g id="Group_19994" data-name="Group 19994" transform="translate(6.601 33.47)">
        <path id="Subtraction_5" data-name="Subtraction 5" d="M36.738,46.5h0c-2.569,0-5.8-1.564-9.1-4.4-.484-.417-.959-.851-1.413-1.289-.381.368-.748.706-1.091,1.005-3.392,2.965-6.894,4.666-9.606,4.666a4.927,4.927,0,0,1-2.494-.613,6.21,6.21,0,0,1-2.667-4.376,20.113,20.113,0,0,1,.19-7.518c.118-.621.256-1.248.41-1.866-.482-.138-.957-.286-1.413-.441a20.852,20.852,0,0,1-6.939-3.753C.9,26.407,0,24.78,0,23.2a6.209,6.209,0,0,1,2.458-4.5,20.117,20.117,0,0,1,6.608-3.591c.6-.21,1.251-.415,1.934-.609-.146-.584-.275-1.167-.386-1.731a20.862,20.862,0,0,1-.26-7.664A6.211,6.211,0,0,1,13,.661,4.837,4.837,0,0,1,15.454.051a10.547,10.547,0,0,1,4.621,1.282,24.571,24.571,0,0,1,5.213,3.639c.289.257.58.526.866.8.426-.411.865-.812,1.3-1.194C30.847,1.626,34.15,0,36.756,0a4.713,4.713,0,0,1,2.386.592c1.382.8,2.331,2.421,2.745,4.7a21.923,21.923,0,0,1-.342,8.1c-.08.384-.167.77-.26,1.147.568.163,1.134.342,1.682.53a20.863,20.863,0,0,1,6.762,3.615A6.213,6.213,0,0,1,52.259,23.2c0,1.595-.933,3.228-2.7,4.724A21.927,21.927,0,0,1,42.37,31.68c-.3.1-.627.2-.971.3.121.485.226.956.313,1.4a20.848,20.848,0,0,1,.23,7.885c-.441,2.234-1.4,3.832-2.76,4.621A4.808,4.808,0,0,1,36.738,46.5Zm2.5-13.946a52.182,52.182,0,0,1-7.078,1.091A52.434,52.434,0,0,1,27.78,39.2c.44.423.882.826,1.314,1.2,2.814,2.421,5.666,3.867,7.63,3.867a2.643,2.643,0,0,0,1.337-.313,4.623,4.623,0,0,0,1.711-3.244,18.876,18.876,0,0,0-.251-6.9c-.081-.406-.176-.831-.283-1.264Zm-26.1.1c-.143.574-.272,1.158-.382,1.735-.894,4.71-.332,8.545,1.4,9.544a2.748,2.748,0,0,0,1.381.314,6.991,6.991,0,0,0,2.285-.451,18.871,18.871,0,0,0,5.85-3.662c.349-.306.684-.615,1-.917a54.349,54.349,0,0,1-4.486-5.543A52.6,52.6,0,0,1,13.134,32.65Zm9.938,1.192h0C24.1,35.2,25.158,36.463,26.216,37.6a47.584,47.584,0,0,0,3.068-3.774c-1.06.047-2.121.07-3.155.07s-2.048-.02-3.058-.059Zm-4.234-14.8c-.789,1.368-1.537,2.786-2.223,4.212.685,1.423,1.435,2.84,2.229,4.211S20.5,30.208,21.4,31.519c1.531.1,3.123.149,4.731.149s3.228-.057,4.786-.168c.873-1.312,1.717-2.673,2.507-4.045s1.547-2.794,2.246-4.23c-.7-1.419-1.462-2.83-2.253-4.193s-1.64-2.722-2.519-4.02c-1.568-.119-3.172-.18-4.767-.18s-3.191.06-4.759.178c-.89,1.3-1.743,2.662-2.534,4.035ZM15.43,25.882c-.663,1.573-1.233,3.125-1.694,4.613a47.578,47.578,0,0,0,4.817.774c-.567-.879-1.119-1.782-1.641-2.684s-1.013-1.8-1.481-2.7h0Zm21.441-.08h0c-.483.929-.993,1.861-1.516,2.769s-1.057,1.791-1.6,2.659a47.363,47.363,0,0,0,4.875-.831,47.26,47.26,0,0,0-1.754-4.6ZM11.6,16.658c-.6.171-1.209.361-1.8.566C5.274,18.8,2.232,21.206,2.232,23.2A4.627,4.627,0,0,0,4.183,26.31a18.88,18.88,0,0,0,6.095,3.238c.423.144.857.279,1.29.4a54.37,54.37,0,0,1,2.579-6.694,53.5,53.5,0,0,1-2.547-6.6Zm29.087.033h0a52.285,52.285,0,0,1-2.544,6.524,52.334,52.334,0,0,1,2.647,6.62c.318-.095.605-.185.878-.275,4.921-1.631,8.358-4.245,8.358-6.357,0-.938-.738-2.039-2.079-3.1a19.69,19.69,0,0,0-5.707-2.924c-.489-.168-1.012-.333-1.553-.49ZM33.758,15.3c.55.862,1.084,1.741,1.589,2.613.519.9,1.025,1.812,1.5,2.72a47.78,47.78,0,0,0,1.672-4.5C37.021,15.791,35.418,15.51,33.758,15.3Zm-15.253,0c-1.655.206-3.249.48-4.738.813.453,1.462,1.012,2.984,1.661,4.522.469-.912.966-1.821,1.474-2.7S17.958,16.15,18.505,15.3ZM36.743,2.227c-2,0-4.92,1.508-7.822,4.034-.4.351-.807.722-1.2,1.1a52.281,52.281,0,0,1,4.418,5.514,53.308,53.308,0,0,1,6.987,1.1c.082-.334.161-.684.235-1.039,1.046-5.078.5-9.361-1.331-10.416A2.549,2.549,0,0,0,36.743,2.227Zm-21.273.05a2.677,2.677,0,0,0-1.353.315c-.812.47-1.394,1.66-1.639,3.352a19.694,19.694,0,0,0,.328,6.4c.105.537.226,1.079.359,1.61a54.508,54.508,0,0,1,6.973-1.083,53.483,53.483,0,0,1,4.451-5.509c-.259-.248-.523-.493-.784-.724C20.727,3.908,17.611,2.277,15.469,2.277ZM26.135,12.6c1.028,0,2.069.025,3.095.073A47.826,47.826,0,0,0,26.154,8.96c-1.043,1.126-2.087,2.374-3.1,3.712C24.086,12.624,25.123,12.6,26.135,12.6Z" transform="translate(0 0)" fill="#53c1de"/>
        <path id="Path_111218" data-name="Path 111218" d="M112.71,94.665a4.667,4.667,0,1,1-4.667,4.667,4.666,4.666,0,0,1,4.667-4.667" transform="translate(-86.581 -76.128)" fill="#53c1de"/>
      </g>
    </g>
  </g>
</svg>
