<svg xmlns="http://www.w3.org/2000/svg" xmlns:xlink="http://www.w3.org/1999/xlink" width="240" height="120" viewBox="0 0 240 120">
  <defs>
    <clipPath id="clip-_03">
      <rect width="240" height="120"/>
    </clipPath>
  </defs>
  <g id="_03" data-name="03" clip-path="url(#clip-_03)">
    <g id="swift-logo-with-text" transform="translate(41 35.681)">
      <path id="Path_111212" data-name="Path 111212" d="M48.808,13.519q0-.736-.022-1.472A21.441,21.441,0,0,0,48.5,8.842a10.811,10.811,0,0,0-1-3.048,10.244,10.244,0,0,0-4.479-4.481,10.819,10.819,0,0,0-3.047-1A21.361,21.361,0,0,0,36.765.026C36.273.012,35.782.006,35.291,0c-.583,0-1.166,0-1.75,0H15.269C14.685,0,14.1,0,13.52,0c-.491,0-.982.01-1.473.023q-.4.01-.8.03a18.561,18.561,0,0,0-2.4.252A11.154,11.154,0,0,0,6.53.972a10.255,10.255,0,0,0-5.218,4.82,10.79,10.79,0,0,0-1,3.048,21.335,21.335,0,0,0-.282,3.205c-.014.493-.02.983-.023,1.473,0,.584,0,1.167,0,1.75V33.542c0,.584,0,1.167,0,1.75,0,.491.01.982.023,1.472a21.419,21.419,0,0,0,.282,3.205,10.819,10.819,0,0,0,1,3.05A10.238,10.238,0,0,0,5.793,47.5a10.837,10.837,0,0,0,3.047,1,21.325,21.325,0,0,0,3.206.282c.491.013.982.019,1.473.022.582,0,1.165,0,1.749,0H33.542c.582,0,1.166,0,1.749,0,.491,0,.981-.009,1.472-.022A21.456,21.456,0,0,0,39.97,48.5a10.819,10.819,0,0,0,3.047-1,10.241,10.241,0,0,0,4.48-4.481,10.834,10.834,0,0,0,1-3.048,21.315,21.315,0,0,0,.282-3.206c.013-.49.019-.981.022-1.472,0-.583,0-1.166,0-1.75V15.269c0-.583,0-1.166,0-1.75Z" fill="#f05138"/>
      <path id="Path_111213" data-name="Path 111213" d="M38.745,30.226l0,0c.053-.184.108-.367.157-.555C40.925,21.6,35.98,12.054,27.614,7.03,31.281,12,32.9,18.021,31.46,23.285a13.547,13.547,0,0,1-.453,1.359q-.358-.23-.732-.433A105.435,105.435,0,0,1,12.932,9.983,108,108,0,0,0,23.47,23.248,113.31,113.31,0,0,1,8.49,11.9a21.6,21.6,0,0,0,2.045,2.82c3.975,5.042,9.161,11.263,15.372,16.04-4.364,2.671-10.531,2.878-16.671,0A25.188,25.188,0,0,1,4.968,28.22a25.563,25.563,0,0,0,11.474,9.838c5.811,2.5,11.588,2.328,15.891.041l0,0c.02-.013.044-.026.065-.039.177-.094.352-.191.523-.293,2.068-1.073,6.152-2.162,8.344,2.1.537,1.044,1.679-4.487-2.515-9.647Z" transform="translate(-0.068 -0.097)" fill="#fff"/>
      <path id="Path_111214" data-name="Path 111214" d="M68.213,31.785c.382,3.386,3.612,5.606,8.1,5.606,4.262,0,7.335-2.219,7.335-5.292,0-2.646-1.862-4.262-6.146-5.337L73.35,25.705c-5.966-1.479-8.657-4.172-8.657-8.612,0-5.473,4.777-9.263,11.573-9.263,6.593,0,11.281,3.813,11.438,9.308H83.33c-.336-3.365-3.073-5.428-7.177-5.428-4.06,0-6.886,2.086-6.886,5.135,0,2.377,1.75,3.791,6.055,4.89l3.455.9C85.462,24.27,88.2,26.872,88.2,31.56c0,5.967-4.733,9.711-12.269,9.711-7,0-11.775-3.723-12.134-9.488h4.418Zm47.765,8.948h-4.4l-5.136-17.9h-.089l-5.115,17.9H96.849l-6.5-23.438H94.6l4.531,18.817h.09l5.114-18.817h4.127l5.158,18.817h.09l4.531-18.817h4.216Zm9.32-29.74a2.591,2.591,0,1,1,2.58,2.579,2.576,2.576,0,0,1-2.58-2.579Zm.45,6.3h4.283V40.733h-4.283Zm32.258,3.455V17.295h-4.53V11.688h-4.262v5.607h-8.188V15.232c.022-2.086.828-2.961,2.758-2.961a10.616,10.616,0,0,1,1.771.158V9.063a14.952,14.952,0,0,0-2.264-.179c-4.576,0-6.505,1.907-6.505,6.28v2.13h-3.274v3.455h3.274V40.732h4.262V20.75h8.167V34.586c0,4.531,1.726,6.279,6.212,6.279a14.97,14.97,0,0,0,2.557-.179v-3.5a15.147,15.147,0,0,1-1.615.112c-2,0-2.893-.942-2.893-3.05V20.75Z" transform="translate(-0.878 -0.108)"/>
    </g>
  </g>
</svg>
