<svg xmlns="http://www.w3.org/2000/svg" xmlns:xlink="http://www.w3.org/1999/xlink" width="240" height="120" viewBox="0 0 240 120">
  <defs>
    <clipPath id="clip-_05">
      <rect width="240" height="120"/>
    </clipPath>
  </defs>
  <g id="_05" data-name="05" clip-path="url(#clip-_05)">
    <g id="Page-1" transform="translate(-13 -17)">
      <g id="xamarin-logo" transform="translate(42 56)">
        <path id="Logo" d="M114.688,88.392l-4.692-9-4.8,9h-5.16l7.317-11.618-6.584-11.547H106L110.273,74l4.629-8.773h4.785L112.924,76.7l6.87,11.69Zm16.73,0V85.87h-.071a6.077,6.077,0,0,1-5.41,2.968,5.942,5.942,0,0,1-4.249-1.466,5.234,5.234,0,0,1-1.554-3.97q0-5.328,5.981-6.061l5.339-.733q0-3.737-3.464-3.737a10.013,10.013,0,0,0-6.071,2.038V71.262a11.459,11.459,0,0,1,2.964-1.126,14.313,14.313,0,0,1,3.535-.5q7.071,0,7.07,7.152v11.6Zm-3.91-8.386a4.789,4.789,0,0,0-2.589.912,2.64,2.64,0,0,0-.732,2.057,2.38,2.38,0,0,0,.84,1.877,3.269,3.269,0,0,0,2.2.715,3.991,3.991,0,0,0,3.036-1.27,4.437,4.437,0,0,0,1.2-3.165V79.487l-3.946.518Zm34.306,8.386V78.056a7.072,7.072,0,0,0-.8-3.791,3.065,3.065,0,0,0-2.821-1.252,3.293,3.293,0,0,0-2.731,1.5,5.84,5.84,0,0,0-1.107,3.594V88.392h-4.124V77.7q0-4.685-3.589-4.685a3.354,3.354,0,0,0-2.768,1.413A5.934,5.934,0,0,0,142.8,78.11V88.392h-4.124V70.082H142.8v2.825h.071a6.366,6.366,0,0,1,5.785-3.272,5.5,5.5,0,0,1,3.214.966,5.012,5.012,0,0,1,1.982,2.628,6.7,6.7,0,0,1,6.142-3.594q5.964,0,5.964,7.438V88.392Zm17.854,0V85.87H179.6a6.077,6.077,0,0,1-5.41,2.968,5.942,5.942,0,0,1-4.249-1.466,5.234,5.234,0,0,1-1.554-3.97q0-5.328,5.982-6.061l5.339-.733q0-3.737-3.464-3.737a10.013,10.013,0,0,0-6.071,2.038V71.262a11.464,11.464,0,0,1,2.964-1.126,14.309,14.309,0,0,1,3.535-.5q7.071,0,7.07,7.152v11.6Zm-3.91-8.386a4.79,4.79,0,0,0-2.589.912,2.639,2.639,0,0,0-.732,2.057,2.381,2.381,0,0,0,.839,1.877,3.27,3.27,0,0,0,2.2.715,3.99,3.99,0,0,0,3.035-1.27,4.435,4.435,0,0,0,1.2-3.165V79.487l-3.946.518Zm21.8-5.9a4.474,4.474,0,0,0-2.392-.626,3.455,3.455,0,0,0-2.911,1.538,6.7,6.7,0,0,0-1.107,4.005v9.37H187.02V70.082h4.124V73.64h.071q1.321-3.88,4.678-3.88a4.3,4.3,0,0,1,1.661.25V74.1Zm4.106-8.118a2.528,2.528,0,0,1-1.785-.679,2.258,2.258,0,0,1-.732-1.7,2.3,2.3,0,0,1,.732-1.734,2.633,2.633,0,0,1,3.589.018,2.357,2.357,0,0,1,0,3.415A2.551,2.551,0,0,1,201.66,65.987Zm-2.107,22.4V70.082h4.124v18.31Zm19.712,0V78.11q0-5.1-3.66-5.1a3.962,3.962,0,0,0-3.089,1.413,5.176,5.176,0,0,0-1.232,3.558V88.392H207.16V70.082h4.124v2.932h.071a6.47,6.47,0,0,1,5.928-3.379q6.106,0,6.106,7.51V88.392h-4.125ZM55.385,56a3.679,3.679,0,0,0-3.11,1.8L42.466,74.889a3.726,3.726,0,0,0,0,3.607l9.809,17.085a3.678,3.678,0,0,0,3.11,1.8H75a3.679,3.679,0,0,0,3.11-1.8L87.922,78.5a3.726,3.726,0,0,0,0-3.607L78.113,57.8A3.678,3.678,0,0,0,75,56Zm.178,10a.428.428,0,0,1,.082,0h3.384a.446.446,0,0,1,.37.22l5.74,10.257a.439.439,0,0,1,.055.165.44.44,0,0,1,.055-.165l5.726-10.257a.448.448,0,0,1,.384-.22h3.384a.464.464,0,0,1,.384.647l-5.6,10.05,5.6,10.037a.464.464,0,0,1-.384.661H71.358a.448.448,0,0,1-.384-.234L65.248,76.9a.443.443,0,0,1-.055-.165.442.442,0,0,1-.055.165L59.4,87.156a.448.448,0,0,1-.37.234H55.645a.464.464,0,0,1-.384-.661l5.6-10.037-5.6-10.05a.463.463,0,0,1,.3-.647Z" transform="translate(-42 -56)" fill="#3498db" fill-rule="evenodd"/>
      </g>
    </g>
  </g>
</svg>
